# xmcd
# 
# Track frame offsets:
#     150
#     21080
#     37352
#     58240
# 
# Disc length: 990
# 
# Revision: 0
# Processed by: cddbd v1.5.2PL0 Copyright (c) Steve Scherf et al.
# Submitted via: fre:ac v1.0.17
# 
DISCID=3603dc04
DTITLE=石嶺聡子 - くもりのち晴れ
DYEAR=1996
DGENRE=J-Pop
TTITLE0=くもりのち晴れ
TTITLE1=FLY TO YOU
TTITLE2=くもりのち晴れ(オリジナルカラオケ)
TTITLE3=FLY TO YOU(オリジナルカラオケ)
EXTD=
EXTT0=
EXTT1=
EXTT2=
EXTT3=
PLAYORDER=
